<svg id="Слой_1" data-name="Слой 1" xmlns="http://www.w3.org/2000/svg" viewBox="0 0 63.84 64.92"><defs><style>.cls-1{fill:#734c07;}.cls-2{fill:#7bb115;}</style></defs><title>logo</title><rect class="cls-1" x="6.23" y="35.88" width="5" height="29.04"/><rect class="cls-1" x="722.14" y="747.02" width="5" height="10.87" transform="translate(-1038.85 14.14) rotate(-45)"/><rect class="cls-1" x="769.34" y="754.53" width="5" height="29.04" transform="translate(824.65 819.45) rotate(-180)"/><rect class="cls-1" x="772.45" y="747.02" width="5" height="10.87" transform="translate(71.84 1113.86) rotate(-135)"/><rect class="cls-1" x="747.29" y="761.29" width="5" height="39.56" transform="translate(-750.31 812.21) rotate(-90)"/><rect class="cls-1" x="743.6" y="718.12" width="5" height="15.72" transform="translate(41.3 1048.24) rotate(-135)"/><rect class="cls-1" x="752.88" y="722.25" width="5" height="10.87" transform="translate(-1012.33 28.62) rotate(-45)"/><path class="cls-2" d="M757,717.62h12.49a0,0,0,0,1,0,0v44a6.24,6.24,0,0,1-6.24,6.24h0a6.24,6.24,0,0,1-6.24-6.24v-44A0,0,0,0,1,757,717.62Z" transform="translate(58.8 1088.97) rotate(-135)"/><path class="cls-2" d="M740.39,727.21h0a6.24,6.24,0,0,1,6.24,6.24V766.3a0,0,0,0,1,0,0H734.15a0,0,0,0,1,0,0V733.45a6.24,6.24,0,0,1,6.24-6.24Z" transform="translate(-1030.2 23.6) rotate(-45)"/></svg>